<?xml version="1.0" standalone="no"?>
<!DOCTYPE svg PUBLIC "-//W3C//DTD SVG 20010904//EN"
 "http://www.w3.org/TR/2001/REC-SVG-20010904/DTD/svg10.dtd">
<svg version="1.0" xmlns="http://www.w3.org/2000/svg"
 width="1024.000000pt" height="1024.000000pt" viewBox="0 0 1024.000000 1024.000000"
 preserveAspectRatio="xMidYMid meet">

<g transform="translate(0.000000,1024.000000) scale(0.100000,-0.100000)"
fill="#000000" stroke="none">
<path d="M4130 6667 c-87 -29 -161 -85 -214 -161 -23 -33 -137 -226 -251 -428
l-209 -368 -21 20 c-45 42 -86 50 -262 50 -148 0 -171 -2 -209 -21 -58 -27
-85 -74 -92 -155 -6 -82 16 -144 66 -182 33 -25 42 -27 159 -30 68 -2 123 -7
123 -11 0 -4 -34 -40 -76 -81 -89 -87 -124 -136 -150 -205 -17 -46 -19 -95
-22 -670 -4 -630 0 -708 33 -735 8 -7 13 -16 10 -20 -3 -4 -78 -8 -167 -9
-178 -2 -202 -9 -214 -58 -9 -33 12 -73 46 -90 20 -10 529 -12 2478 -10 l2454
2 24 28 c31 36 31 71 -1 102 -24 25 -27 25 -195 25 -93 0 -170 2 -170 5 0 3
10 20 23 36 l22 31 3 626 c2 440 0 645 -8 687 -19 99 -46 143 -147 242 -51 50
-93 94 -93 96 0 3 58 7 129 9 143 3 163 11 209 78 18 27 22 46 22 109 0 97
-25 146 -90 179 -41 20 -58 22 -216 22 -98 0 -185 -5 -201 -11 -15 -5 -43 -24
-60 -41 -18 -18 -34 -30 -37 -27 -9 10 -193 334 -316 558 -157 285 -195 333
-308 388 l-76 38 -965 2 -966 3 -65 -23z m2005 -164 c64 -34 97 -77 198 -258
52 -93 161 -286 240 -427 l146 -258 -77 0 -77 0 -221 397 c-141 254 -230 404
-248 417 -27 21 -36 21 -944 24 -858 2 -919 1 -952 -15 -31 -16 -59 -61 -230
-363 -107 -190 -210 -372 -228 -403 l-32 -57 -76 0 -76 0 24 43 c335 592 466
818 492 845 32 34 71 59 116 73 14 4 448 7 965 6 l940 -2 40 -22z m61 -598
c101 -181 184 -333 184 -337 0 -5 -558 -8 -1241 -8 -1132 0 -1241 1 -1235 16
6 14 197 362 318 577 l49 87 871 -2 870 -3 184 -330z m-2868 -317 l-3 -53
-142 -3 -143 -3 0 56 0 55 146 0 145 0 -3 -52z m3932 2 c0 -61 -1 -62 -165
-58 l-120 3 -3 39 c-6 67 -8 66 148 66 l140 0 0 -50z m-359 -287 c168 -144
223 -201 237 -249 8 -28 12 -137 12 -347 l0 -305 -42 -5 c-24 -4 -926 -6
-2005 -6 l-1963 1 0 316 c0 292 2 320 20 360 19 41 71 94 250 255 l85 76 1646
1 1646 0 114 -97z m-591 -1425 c0 -100 13 -162 38 -190 14 -17 -44 -18 -1200
-18 l-1216 0 19 37 c15 30 19 59 19 150 l0 113 1170 0 1170 0 0 -92z"/>
<path d="M3304 5056 l-29 -24 0 -142 c0 -195 -26 -180 316 -180 255 0 269 1
279 19 15 30 12 56 -11 85 l-20 26 -210 0 -209 0 0 55 0 55 196 0 196 0 96
-78 c136 -110 148 -117 234 -142 93 -27 125 -58 158 -148 12 -34 32 -69 44
-77 17 -13 132 -15 798 -15 563 0 784 3 802 11 18 9 33 31 52 83 37 95 62 118
165 150 85 26 93 31 247 159 l69 57 192 0 191 0 0 -55 0 -55 -200 0 c-200 0
-201 0 -225 -25 -28 -27 -32 -62 -11 -90 13 -18 29 -19 272 -16 316 3 300 -4
310 137 9 117 -1 180 -31 210 l-24 24 -269 0 -268 0 -49 -31 c-28 -18 -70 -48
-94 -68 l-44 -36 -268 -5 -268 -5 -38 -37 -39 -38 -470 0 -471 0 -24 26 c-49
52 -59 54 -327 54 l-249 0 -44 31 c-24 16 -68 47 -98 67 l-54 37 -273 3 -272
3 -28 -25z"/>
<path d="M4760 5063 c-51 -19 -65 -73 -30 -111 21 -22 22 -22 420 -22 398 0
399 0 420 22 11 12 20 27 20 34 0 29 -25 64 -53 74 -31 10 -748 14 -777 3z"/>
</g>
</svg>
